# xmcd CD database file
#
# Track frame offsets:
#	150
#	12343
#	24372
#	41993
#	53112
#	66546
#	81376
#	96054
#	108833
#	126761
#	138246
#	154447
#	167769
#	182152
#	195170
#	208689
#
# Disc length: 2987 seconds
#
# Revision: 0
# Processed by: cddbd v1.5PL3 Copyright (c) Steve Scherf et al.
# Submitted via: CDex 1.51
#
DISCID=dd0ba910
DTITLE=Cliff, Jimmy - The Best of Jimmy Cliff - You can get it if you really want
DYEAR=2001
DGENRE=Rhythmic Soul
TTITLE0=You can get it if you really want
TTITLE1=Many rivers to cross
TTITLE2=Vietnam
TTITLE3=Give a little, take a little
TTITLE4=Sufferin in the land
TTITLE5=Better days are coming
TTITLE6=Where did it go
TTITLE7=Come into my life
TTITLE8=Bongo man a come
TTITLE9=Hard road to travel
TTITLE10=Pack up, hang ups
TTITLE11=Use what I got
TTITLE12=Wonderful world,beautiful people
TTITLE13=She does it right
TTITLE14=Beware
TTITLE15=My ancestors
EXTD=YEAR: 2001
EXTT0=
EXTT1=
EXTT2=
EXTT3=
EXTT4=
EXTT5=
EXTT6=
EXTT7=
EXTT8=
EXTT9=
EXTT10=
EXTT11=
EXTT12=
EXTT13=
EXTT14=
EXTT15=
PLAYORDER=
